<svg width="20" height="20" viewBox="0 0 20 20" fill="none" xmlns="http://www.w3.org/2000/svg">
<g clip-path="url(#clip0_1_469)">
<path d="M8.17501 10L11.7583 6.42501C11.9153 6.26809 12.0034 6.05526 12.0034 5.83334C12.0034 5.61142 11.9153 5.39859 11.7583 5.24167C11.6014 5.08475 11.3886 4.9966 11.1667 4.9966C10.9448 4.9966 10.7319 5.08475 10.575 5.24167L7.00001 8.82501L3.42501 5.24167C3.26809 5.08475 3.05526 4.9966 2.83334 4.9966C2.61143 4.9966 2.3986 5.08475 2.24168 5.24167C2.08476 5.39859 1.9966 5.61142 1.9966 5.83334C1.9966 6.05526 2.08476 6.26809 2.24168 6.42501L5.82501 10L2.24168 13.575C2.16357 13.6525 2.10157 13.7446 2.05927 13.8462C2.01696 13.9477 1.99518 14.0567 1.99518 14.1667C1.99518 14.2767 2.01696 14.3856 2.05927 14.4872C2.10157 14.5887 2.16357 14.6809 2.24168 14.7583C2.31915 14.8364 2.41131 14.8984 2.51286 14.9408C2.61441 14.9831 2.72333 15.0048 2.83334 15.0048C2.94335 15.0048 3.05227 14.9831 3.15382 14.9408C3.25537 14.8984 3.34754 14.8364 3.42501 14.7583L7.00001 11.175L10.575 14.7583C10.6525 14.8364 10.7446 14.8984 10.8462 14.9408C10.9477 14.9831 11.0567 15.0048 11.1667 15.0048C11.2767 15.0048 11.3856 14.9831 11.4872 14.9408C11.5887 14.8984 11.6809 14.8364 11.7583 14.7583C11.8364 14.6809 11.8984 14.5887 11.9408 14.4872C11.9831 14.3856 12.0048 14.2767 12.0048 14.1667C12.0048 14.0567 11.9831 13.9477 11.9408 13.8462C11.8984 13.7446 11.8364 13.6525 11.7583 13.575L8.17501 10Z" fill="#6B007C" fill-opacity="0.5"/>
</g>
<defs>
<clipPath id="clip0_1_469">
<rect width="20" height="20" fill="white"/>
</clipPath>
</defs>
</svg>
